Title:
Like Someone in Love

Country:
Japan/Iran/France/2012

Language:
Japanese

Subtitle:
English (srt)

Director:
Abbas Kiarostami

Writer:
Abbas Kiarostami (screenplay)

Stars:
Rin Takanashi, Tadashi Okuno, Ryo Kase

Synopsis:
In Tokyo, a young prostitute develops an unexpected connection with a widower over a period of two days. 

Trivia:
Official Selection Cannes Film Festival 2012

Imdb: 
http://www.imdb.com/title/tt1843287

Trailer: 
http://www.bandes-annonces.fr/film-2012/bande-annonce-likesomeoneinlove.html


Media Info:

General
Complete name                            : Like.Someone.In.Love.2012.DVDRip.XviD.AC3.HORiZON-ArtSubs.avi
Format                                   : AVI
Format/Info                              : Audio Video Interleave
File size                                : 1.25 GiB
Duration                                 : 1h 45mn
Overall bit rate                         : 1 703 Kbps

Video
ID                                       : 0
Format                                   : MPEG-4 Visual
Format profile                           : Advanced Simple@L5
Format settings, BVOP                    : 2
Format settings, QPel                    : No
Format settings, GMC                     : No warppoints
Format settings, Matrix                  : Default (MPEG)
Codec ID                                 : XVID
Codec ID/Hint                            : XviD
Duration                                 : 1h 45mn
Bit rate                                 : 1 565 Kbps
Width                                    : 720 pixels
Height                                   : 432 pixels
Display aspect ratio                     : 1.667
Frame rate                               : 25.000 fps
Color space                              : YUV
Chroma subsampling                       : 4:2:0
Bit depth                                : 8 bits
Scan type                                : Progressive
Compression mode                         : Lossy
Bits/(Pixel*Frame)                       : 0.201
Stream size                              : 1.15 GiB (92%)
Writing library                          : XviD 1.2.1 (UTC 2008-12-04)

Audio
ID                                       : 1
Format                                   : MPEG Audio
Format version                           : Version 1
Format profile                           : Layer 3
Mode                                     : Joint stereo
Codec ID                                 : 55
Codec ID/Hint                            : MP3
Duration                                 : 1h 45mn
Bit rate mode                            : Constant
Bit rate                                 : 128 Kbps
Channel(s)                               : 2 channels
Sampling rate                            : 48.0 KHz
Compression mode                         : Lossy
Stream size                              : 96.2 MiB (8%)
Alignment                                : Aligned on interleaves
Interleave, duration                     : 40 ms (1.00 video frame)
Interleave, preload duration             : 504 ms
Writing library                          : LAMEI¦o„¡&D2Ûs(vó

